<?xml version="1.0" encoding="UTF-8"?>
<svg width="107px" height="101px" viewBox="0 0 107 101" version="1.1" xmlns="http://www.w3.org/2000/svg" xmlns:xlink="http://www.w3.org/1999/xlink">
    <!-- Generator: Sketch 44.1 (41455) - http://www.bohemiancoding.com/sketch -->
    <title>Slice 1</title>
    <desc>Created with Sketch.</desc>
    <defs></defs>
    <g id="Page-1" stroke="none" stroke-width="1" fill="none" fill-rule="evenodd">
        <g id="branding" transform="translate(1.000000, 0.000000)">
            <path d="M19.4572254,8.87149762 C17.7592365,9.19631383 16.1116483,10.8535637 15.796494,12.5536444 L0.0515240767,97.5062792 C-0.262534644,99.2064594 0.892002187,100.517478 2.61887692,100.418868 L102.807693,94.7449929 C104.53387,94.6473787 105.429331,93.2505993 104.797827,91.6405627 L69.7770423,2.39579208 C69.1467335,0.785855164 67.2386749,-0.26499149 65.540686,0.0587290436 L19.4572254,8.87149762 Z" id="Shape" fill="#FF0066" fill-rule="nonzero"></path>
            <path d="M67.0922536,80.1673094 C65.084489,82.1182984 63.6919927,82.7045812 62.4088641,82.7045812 C60.0955074,82.7045812 58.7577945,80.1126255 58.7577945,77.0747325 C58.7577945,72.7268171 60.7086839,68.4325895 66.5058712,68.4325895 C68.3196026,68.4325895 70.4925144,68.8506372 73.1112642,69.8260819 L71.6630879,81.7023424 C71.0220216,86.8562721 67.2594926,88.4459889 63.6083234,88.4459889 C61.7410038,88.4459889 59.8736841,88.0268455 58.5079819,87.4158604 L59.5660002,83.3456474 C61.2114966,83.818379 62.9673567,84.2643165 64.1379302,84.2643165 C65.3631875,84.2643165 66.701,83.7348093 66.8681394,82.1482799 L67.0922536,80.1673094 Z" id="Path" fill="#FFFFFF"></path>
            <path d="M22.9538055,65.8132422 L19.4506513,65.8132422 L19.4506513,86.9426308 L22.9538055,86.9426308 L22.9538055,84.5704067 C24.0257687,85.9875058 25.6165812,87.2609726 28.135625,87.2609726 C31.7825111,87.2609726 35.2534925,84.3966933 35.2534925,79.3027266 C35.2534925,74.2066681 31.7535257,71.3423889 28.135625,71.3423889 C25.6755482,71.3423889 24.0826439,72.6158556 22.9538055,74.2066681 L22.9538055,65.8132422 Z" id="Path" fill="#FFFFFF"></path>
            <path d="M27.325228,74.3803816 C24.9509122,74.3803816 22.8680445,76.3216091 22.8680445,79.3027266 C22.8680445,82.2817523 24.9509122,84.2230795 27.325228,84.2230795 C29.7264375,84.2230795 31.6945587,82.3407193 31.6945587,79.3027266 C31.6945587,76.2916276 29.6975517,74.3803816 27.325228,74.3803816 Z" id="Path" fill="#FF0066"></path>
            <polygon id="Path" fill="#FFFFFF" points="47.5002885 65.4084421 46.5386891 65.4084421 43.2917223 79.3363935 43.2939137 79.4072136 41.5894504 86.9376504 42.8200864 86.9376504 44.2758328 80.4223016 49.7320676 80.4223016 51.1867183 86.9376504 52.4194461 86.9376504 47.5185164 65.4921114"></polygon>
            <polygon id="Path" fill="#FF0066" points="44.5770423 79.2271254 49.4619353 79.2271254 47.0039502 68.6790155"></polygon>
            <path d="M66.1167093,72.6153576 C64.7521027,72.6153576 63.6630073,73.7559496 63.6630073,76.4325705 C63.6630073,77.7993684 63.9974853,78.1616366 64.4713125,78.1616366 C65.1133749,78.1616366 66.3676176,77.3244455 67.6496505,75.7079346 L67.9551431,73.1727546 C67.344158,72.7825966 66.701,72.6153576 66.1167093,72.6153576 Z" id="Path" fill="#FF0066"></path>
            <path d="M58.0267838,55.2986 C58.062144,55.3929272 58.1190192,55.4390449 58.1940228,55.4390449 C58.2679307,55.4390449 58.3237102,55.3929272 58.3622578,55.2986 L61.0421658,47.5816006 C61.1333056,47.3029021 61.3113021,47.1624572 61.5717726,47.1624572 L64.6364598,47.1646485 C64.8230224,47.1646485 64.9677504,47.2439351 65.0695481,47.4015123 C65.1703497,47.5601852 65.1746327,47.7423651 65.0823973,47.9460601 L60.1417247,60.3732431 L60.1374416,66.1146509 C60.1374416,66.2636619 60.080666,66.3933494 59.9702026,66.5038128 C59.8587432,66.6174636 59.7268644,66.6710518 59.5800447,66.6710518 L56.7918646,66.6688604 C56.6428536,66.6688604 56.5131662,66.6152722 56.4017067,66.5016214 C56.2912433,66.3912576 56.2344677,66.2615702 56.2344677,66.1125591 L56.2387508,60.36896 L51.3142144,47.9374939 C51.2198872,47.7317073 51.226262,47.551619 51.3291553,47.3929462 C51.4299569,47.2364647 51.5735892,47.1560824 51.7601519,47.1560824 L54.8259347,47.1581741 C55.0875009,47.1581741 55.2633061,47.298619 55.3554419,47.5773175 L58.0267838,55.2986 Z" id="Path" fill="#FFFFFF"></path>
            <path d="M44.729938,48.1110081 C47.3369341,49.2140485 47.9285957,51.5263096 46.8255553,54.13221 L42.3887911,64.6148785 L39.3679307,63.336033 L43.5046806,53.5651513 C44.2068056,51.904714 44.0684524,51.0803721 42.6470703,50.4768574 C41.4325704,49.9644825 40.1611954,49.9140817 39.1857507,49.9912766 C39.1020814,50.2699751 38.9788684,50.5647102 38.890916,50.7716921 L34.4519604,61.257548 L31.4311996,59.9776068 L35.56785,50.2045337 C36.2689789,48.5462877 36.1317214,47.7197545 34.7092436,47.1184312 C33.7615891,46.7164201 32.1150966,46.6477913 31.2157512,46.7925193 L26.5152294,57.8969304 L23.4954647,56.6180849 L29.6613946,42.0480712 L32.0315269,43.0503099 L31.8224533,44.5328504 C33.4089827,44.0869129 35.1659385,44.0644019 36.7931073,44.7525819 C38.7483794,45.5801112 39.2232027,46.9318685 39.3615559,47.7593978 C41.1913239,47.3134603 42.6867136,47.2459273 44.729938,48.1110081 Z" id="Path" fill="#FFFFFF"></path>
            <path d="M48.5717536,30.3797887 C48.1300992,28.6442482 47.600592,26.9666786 47.1267648,25.2418956 L48.8944781,24.791675 C49.1517612,25.5291602 49.3093384,26.0104579 49.6479999,27.2142999 L49.7145369,27.1971676 C49.9246067,26.3771088 50.5045146,24.1388552 53.2862203,23.4313515 C57.9010806,22.2586864 59.0737458,26.8734471 59.3567273,27.9871453 L62.2017826,39.1795088 L60.3043818,39.6608065 L57.4421943,28.4031013 C57.1517423,27.2582263 56.4528047,24.5086935 53.3430955,25.2986712 C51.0190809,25.8893366 50.1046949,28.4555938 50.7617978,31.0411746 L53.3977794,41.415571 L51.5003786,41.8968688 L48.5717536,30.3797887 Z" id="Path" fill="#FFFFFF"></path>
            <polygon id="Path" fill="#FFFFFF" points="38.9494845 36.6710233 34.0977604 35.1906742 38.2687749 21.5156232 43.1194034 22.9927849"></polygon>
            <path d="M45.0146128,17.8302891 C44.5601092,19.3256787 42.9586388,20.1768147 41.4653409,19.7212154 C39.9732383,19.2667118 39.1210066,17.6652414 39.5755102,16.1719435 C40.0321056,14.6798408 41.6314842,13.8276092 43.1236865,14.2832085 C44.6168848,14.7377121 45.4713078,16.3370908 45.0146128,17.8302891 Z" id="Path" fill="#FFFFFF"></path>
        </g>
    </g>
</svg>